<svg xmlns="http://www.w3.org/2000/svg" xmlns:xlink="http://www.w3.org/1999/xlink" width="500" zoomAndPan="magnify" viewBox="0 0 375 374.999991" height="500" preserveAspectRatio="xMidYMid meet" version="1.0"><path fill="#007fd4" d="M 87.054688 258.449219 C 78.683594 258.449219 70.3125 255.101562 63.617188 248.402344 L 13.394531 198.179688 C 0 184.789062 0 164.699219 13.394531 151.304688 L 63.617188 101.082031 C 77.007812 87.691406 97.097656 87.691406 110.492188 101.082031 C 123.882812 114.476562 123.882812 134.566406 110.492188 147.957031 L 83.707031 174.742188 L 110.492188 201.527344 C 123.882812 214.921875 123.882812 235.011719 110.492188 248.402344 C 103.792969 255.101562 95.425781 258.449219 87.054688 258.449219 Z M 87.054688 258.449219 " fill-opacity="1" fill-rule="nonzero"/><path fill="#007fd4" d="M 287.945312 258.449219 C 279.574219 258.449219 271.207031 255.101562 264.507812 248.402344 C 251.117188 235.011719 251.117188 214.921875 264.507812 201.527344 L 291.292969 174.742188 L 264.507812 147.957031 C 251.117188 134.566406 251.117188 114.476562 264.507812 101.082031 C 277.902344 87.691406 297.992188 87.691406 311.382812 101.082031 L 361.605469 151.304688 C 375 164.699219 375 184.789062 361.605469 198.179688 L 311.382812 248.402344 C 304.6875 255.101562 296.316406 258.449219 287.945312 258.449219 Z M 287.945312 258.449219 " fill-opacity="1" fill-rule="nonzero"/><path fill="#007fd4" d="M 170.757812 308.671875 C 169.085938 308.671875 167.410156 308.671875 165.738281 308.671875 C 147.320312 305.324219 135.601562 288.582031 138.949219 270.167969 L 172.433594 69.273438 C 175.78125 50.859375 192.523438 39.140625 210.9375 42.488281 C 229.351562 45.835938 241.070312 62.578125 237.722656 80.992188 L 204.242188 281.886719 C 200.894531 296.953125 187.5 308.671875 170.757812 308.671875 Z M 170.757812 308.671875 " fill-opacity="1" fill-rule="nonzero"/></svg>